<mxfile host="app.diagrams.net" modified="2022-02-05T04:27:01.570Z" agent="5.0 (Macintosh; Intel Mac OS X 10_15_7) AppleWebKit/537.36 (KHTML, like Gecko) Chrome/97.0.4692.99 Safari/537.36" etag="1SEYou12sf5MQYF1sQWg" version="16.5.2" type="github">
  <diagram id="KfdXvxcvI5cZtabfhip-" name="Page-1">
    <mxGraphModel dx="1425" dy="779" grid="1" gridSize="10" guides="1" tooltips="1" connect="1" arrows="1" fold="1" page="1" pageScale="1" pageWidth="850" pageHeight="1100" math="0" shadow="0">
      <root>
        <mxCell id="0" />
        <mxCell id="1" parent="0" />
        <mxCell id="RYE8tncCzNAv9k0Rwi5K-1" style="edgeStyle=none;html=1;" edge="1" parent="1" source="RYE8tncCzNAv9k0Rwi5K-2">
          <mxGeometry relative="1" as="geometry">
            <mxPoint x="180" y="460" as="targetPoint" />
          </mxGeometry>
        </mxCell>
        <mxCell id="RYE8tncCzNAv9k0Rwi5K-2" value="&lt;font style=&quot;font-size: 12px&quot;&gt;サーバ&lt;/font&gt;" style="rounded=0;whiteSpace=wrap;html=1;" vertex="1" parent="1">
          <mxGeometry x="120" y="40" width="120" height="40" as="geometry" />
        </mxCell>
        <mxCell id="RYE8tncCzNAv9k0Rwi5K-3" style="edgeStyle=none;html=1;" edge="1" parent="1" source="RYE8tncCzNAv9k0Rwi5K-4">
          <mxGeometry relative="1" as="geometry">
            <mxPoint x="660" y="460" as="targetPoint" />
          </mxGeometry>
        </mxCell>
        <mxCell id="RYE8tncCzNAv9k0Rwi5K-4" value="&lt;font style=&quot;font-size: 12px&quot;&gt;センサ&lt;/font&gt;" style="rounded=0;whiteSpace=wrap;html=1;" vertex="1" parent="1">
          <mxGeometry x="600" y="40" width="120" height="40" as="geometry" />
        </mxCell>
        <mxCell id="RYE8tncCzNAv9k0Rwi5K-5" value="" style="endArrow=classic;html=1;fontSize=12;" edge="1" parent="1">
          <mxGeometry width="50" height="50" relative="1" as="geometry">
            <mxPoint x="180" y="120" as="sourcePoint" />
            <mxPoint x="660" y="160" as="targetPoint" />
          </mxGeometry>
        </mxCell>
        <mxCell id="RYE8tncCzNAv9k0Rwi5K-6" value="Request" style="text;html=1;strokeColor=none;fillColor=none;align=left;verticalAlign=middle;whiteSpace=wrap;rounded=0;fontSize=12;" vertex="1" parent="1">
          <mxGeometry x="200" y="90" width="60" height="30" as="geometry" />
        </mxCell>
        <mxCell id="RYE8tncCzNAv9k0Rwi5K-7" value="" style="endArrow=classic;html=1;fontSize=12;" edge="1" parent="1">
          <mxGeometry width="50" height="50" relative="1" as="geometry">
            <mxPoint x="180" y="280" as="sourcePoint" />
            <mxPoint x="660" y="320" as="targetPoint" />
          </mxGeometry>
        </mxCell>
        <mxCell id="RYE8tncCzNAv9k0Rwi5K-8" value="" style="endArrow=classic;html=1;fontSize=12;" edge="1" parent="1">
          <mxGeometry width="50" height="50" relative="1" as="geometry">
            <mxPoint x="660" y="200" as="sourcePoint" />
            <mxPoint x="180" y="240" as="targetPoint" />
          </mxGeometry>
        </mxCell>
        <mxCell id="RYE8tncCzNAv9k0Rwi5K-9" value="① 何らかの符号を&lt;br&gt;　 発行して送る" style="text;html=1;strokeColor=none;fillColor=none;align=left;verticalAlign=middle;whiteSpace=wrap;rounded=0;fontSize=12;" vertex="1" parent="1">
          <mxGeometry x="670" y="160" width="120" height="30" as="geometry" />
        </mxCell>
        <mxCell id="RYE8tncCzNAv9k0Rwi5K-10" value="" style="endArrow=classic;html=1;fontSize=12;" edge="1" parent="1">
          <mxGeometry width="50" height="50" relative="1" as="geometry">
            <mxPoint x="660" y="360" as="sourcePoint" />
            <mxPoint x="180" y="400" as="targetPoint" />
          </mxGeometry>
        </mxCell>
        <mxCell id="RYE8tncCzNAv9k0Rwi5K-11" value="② 1で送った符号が&lt;br&gt;　 付与されていれば&lt;br&gt;　 Requestを受理" style="text;html=1;strokeColor=none;fillColor=none;align=left;verticalAlign=middle;whiteSpace=wrap;rounded=0;fontSize=12;" vertex="1" parent="1">
          <mxGeometry x="670" y="320" width="130" height="50" as="geometry" />
        </mxCell>
        <mxCell id="RYE8tncCzNAv9k0Rwi5K-12" value="③ 受け取った符号と&lt;br&gt;　 共にRequestを再送" style="text;html=1;strokeColor=none;fillColor=none;align=left;verticalAlign=middle;whiteSpace=wrap;rounded=0;fontSize=12;" vertex="1" parent="1">
          <mxGeometry x="40" y="240" width="130" height="40" as="geometry" />
        </mxCell>
        <mxCell id="RYE8tncCzNAv9k0Rwi5K-14" value="&lt;div&gt;&lt;div&gt;④ 以降は同じ相手と通信し続けて&lt;br&gt;いることを何らかの方法で担保&lt;/div&gt;&lt;/div&gt;" style="text;html=1;strokeColor=none;fillColor=none;align=left;verticalAlign=middle;whiteSpace=wrap;rounded=0;fontSize=12;" vertex="1" parent="1">
          <mxGeometry x="320" y="400" width="220" height="80" as="geometry" />
        </mxCell>
        <mxCell id="RYE8tncCzNAv9k0Rwi5K-18" value="RetryRequest+符号" style="text;html=1;strokeColor=none;fillColor=none;align=right;verticalAlign=middle;whiteSpace=wrap;rounded=0;fontSize=12;" vertex="1" parent="1">
          <mxGeometry x="510" y="170" width="130" height="30" as="geometry" />
        </mxCell>
        <mxCell id="RYE8tncCzNAv9k0Rwi5K-20" value="Response" style="text;html=1;strokeColor=none;fillColor=none;align=right;verticalAlign=middle;whiteSpace=wrap;rounded=0;fontSize=12;" vertex="1" parent="1">
          <mxGeometry x="510" y="330" width="130" height="30" as="geometry" />
        </mxCell>
        <mxCell id="RYE8tncCzNAv9k0Rwi5K-21" value="" style="rounded=0;whiteSpace=wrap;html=1;fillColor=none;dashed=1;strokeColor=#007FFF;" vertex="1" parent="1">
          <mxGeometry x="170" y="170" width="500" height="160" as="geometry" />
        </mxCell>
        <mxCell id="RYE8tncCzNAv9k0Rwi5K-22" value="&lt;font color=&quot;#007fff&quot; style=&quot;font-size: 18px;&quot;&gt;RRC&lt;/font&gt;" style="text;html=1;strokeColor=none;fillColor=none;align=left;verticalAlign=top;whiteSpace=wrap;rounded=0;fontSize=18;" vertex="1" parent="1">
          <mxGeometry x="190" y="170" width="60" height="30" as="geometry" />
        </mxCell>
      </root>
    </mxGraphModel>
  </diagram>
</mxfile>
